<svg xmlns="http://www.w3.org/2000/svg" viewBox="0 0 640 360" data-exercise-id="one-arm-dumbbell-row"><defs><marker id="a" viewBox="0 0 10 10" refX="8" refY="5" markerWidth="7" markerHeight="7" orient="auto"><path d="M0 0 10 5 0 10Z" fill="#f59e0b"/></marker></defs><g fill="none" stroke="#26313a" stroke-width="7" stroke-linecap="round" stroke-linejoin="round"><g data-equipment="flat-bench-dumbbell"><path d="M70 221h123M93 221v82m75-82v82M56 303h57m42 0h57"/><path d="M190 269h41m-35-16v32m29-16v32" stroke-width="8"/></g><g data-pose="end" opacity="0.38"><circle cx="115" cy="125" r="15"/><path d="M128 132l63 56m-39-37-13 68m13-68 55 51m-16-14-27 96m27-96 43 96"/></g><g data-pose="start"><circle cx="115" cy="125" r="15"/><path d="M128 132l63 56m-39-37-13 68m13-68 80 94m-41-57-27 96m27-96 43 96"/></g><path data-motion="arrow" d="M223 245q-22-53-63-77" stroke="#f59e0b" stroke-width="6" marker-end="url(#a)"/></g><g data-muscle-map="front" stroke="#26313a" stroke-width="2" fill="none"><circle cx="535" cy="73" r="12"/><path d="M535 86v86m-22-65 22-16 22 16m-31 64-9 42m27-42 9 42"/><path data-muscle="secondary" d="M512 105l-8 29 9 5 10-31m34-3 8 29-9 5-10-31" fill="#f59e0b" opacity="0.38" stroke="none"/></g><g data-muscle-map="back" stroke="#26313a" stroke-width="2" fill="none"><circle cx="596" cy="73" r="12"/><path d="M596 86v86m-22-65 22-16 22 16m-31 64-9 42m27-42 9 42"/><path data-muscle="primary" d="M581 104l15 9 15-9v37l-15 12-15-12Z" fill="#f59e0b" stroke="none"/><path data-muscle="secondary" d="M584 139h24v13h-24Z" fill="#f59e0b" opacity="0.38" stroke="none"/></g></svg>
